PathFileType	4	(X/Y/Z)	Patient4_TMGait_0pt5_01_left_04.trc.trc
DataRate	CameraRate	NumFrames	NumMarkers	Units	OrigDataRate	OrigDataStartFrame	OrigNumFrames
73.684210526316	73.684210526316	5	33	mm	73.684210526316	53	       141
Frame#	Time	L.ASIS			Sacral			L.Shoulder			Chest			R.Shoulder			Neck			R.ASIS			R.Thigh.Superior			R.Thigh.Lateral			R.Thigh.Inferior			R.Patella			L.Thigh.Superior			L.Thigh.Lateral			L.Thigh.Inferior			L.Patella			L.Shank.Superior			L.Shank.Lateral			L.Shank.Inferior			R.Shank.Superior			R.Shank.Lateral			R.Shank.Inferior			R.Heel			R.Midfoot.Superior			R.Midfoot.Lateral			R.Toe			L.Heel			L.Midfoot.Lateral			L.Midfoot.Superior			L.Toe			L.Elbow			L.Wrist			R.Elbow			R.Wrist			
		X1	Y1	Z1	X2	Y2	Z2	X3	Y3	Z3	X4	Y4	Z4	X5	Y5	Z5	X6	Y6	Z6	X7	Y7	Z7	X8	Y8	Z8	X9	Y9	Z9	X10	Y10	Z10	X11	Y11	Z11	X12	Y12	Z12	X13	Y13	Z13	X14	Y14	Z14	X15	Y15	Z15	X16	Y16	Z16	X17	Y17	Z17	X18	Y18	Z18	X19	Y19	Z19	X20	Y20	Z20	X21	Y21	Z21	X22	Y22	Z22	X23	Y23	Z23	X24	Y24	Z24	X25	Y25	Z25	X26	Y26	Z26	X27	Y27	Z27	X28	Y28	Z28	X29	Y29	Z29	X30	Y30	Z30	X31	Y31	Z31	X32	Y32	Z32	X33	Y33	Z33	

53	5.925714285714	724.532785854864	962.971297921558	301.224388203956	514.954654266388	1002.193600289552	469.591300231509	678.928775895377	1439.039359245382	295.666035569133	787.897992606693	1362.026383153169	449.525563063159	710.772348658069	1430.067386795248	629.816316208117	686.944541881751	1494.204724692008	447.409329520074	749.232416523030	936.451724425706	574.554892308867	816.646284869985	752.743993409931	544.146049396262	765.905100508329	636.160965804178	616.246753573210	849.351720904125	588.021322262486	534.233057554345	855.371830517798	472.379742642205	555.677819511840	784.572520899024	756.330454818024	334.449413718123	701.803172184214	634.820460775456	281.994437576142	787.510918908338	561.966725722064	349.020301830788	790.541904804934	490.696509135360	362.616852732074	764.514606917083	417.136702775961	355.875884092589	679.804808517447	301.341955291979	302.743324472409	723.282633218055	192.888845345938	380.679485791715	770.657454233347	407.235517768569	566.398321957232	648.360191269877	384.460356518850	632.654409741287	616.790454110054	278.703431487814	585.586946082174	412.540936157404	259.666659662506	565.701330605040	561.006530750713	157.880983848826	600.965054827848	454.355197355020	183.392608295983	635.822247042374	595.633903208330	32.988291487065	623.163244561017	589.583451373701	37.563585093481	415.854239518772	668.562999701048	35.223674942816	339.685688683192	750.650654586357	95.709569263180	371.397718486423	880.303447106305	41.268300039048	351.471674557773	619.774577134901	1100.978674022025	151.111413397165	780.578144236025	894.276780693801	146.023314214630	686.537883295633	1081.890863325729	743.523784461151	793.593033201296	846.895388903407	780.041393232701	
54	5.939285714286	723.858169373212	963.599938965826	300.287840413940	513.547451725623	1002.422572720317	468.094244017199	679.376129758815	1439.507325520500	294.810448183689	787.019313055090	1362.389313791653	449.506041573891	708.528655781731	1430.397208451803	629.224242894534	686.506989187486	1494.674153762212	446.616628384305	747.685924117829	937.323025916320	573.904588150667	819.344460225812	757.411533947925	542.301716734040	772.444133702141	639.657893033920	614.859786393470	856.994590870987	593.773968533165	532.465589302697	866.027735101839	477.752404320553	553.707367617119	782.231730900304	755.525358262002	332.979069595719	697.918507691197	634.830401746003	281.123762899882	782.929446078037	561.235196408316	348.055924433970	785.155813653287	490.124328196065	361.962924186284	759.041670084704	416.802661880202	355.275916230415	673.998856941003	301.218820671895	302.180830321457	716.913177367607	192.714598314134	380.403107503335	781.724898697417	411.568331709048	564.503078839814	659.297837746727	388.318519787634	630.429491664738	628.483513139915	282.247499973618	583.598428066719	424.645935088077	261.930535384081	562.938109214409	573.589799747652	161.338469263767	599.231700397414	466.711110530854	186.301620211349	633.619008125354	608.503859585021	34.994855337048	622.196301727536	582.707897692732	37.617660645886	415.781975613289	661.713484418800	35.222007749129	339.590125929382	743.822496487505	95.690050608550	371.265573967544	873.451568062310	41.223903598149	351.372962257150	623.221365527811	1101.618244888423	148.562987534018	787.751441901587	898.014681964561	144.205393682494	674.985448687177	1083.476818054326	743.631165031999	768.758838545634	843.104614435695	781.925435167011	
55	5.952857142857	723.243581760253	964.296091239046	299.579809365181	512.185986260293	1002.813065281582	466.740305904247	679.884028562685	1440.088094339196	294.038212747444	786.137950909920	1362.905467383010	449.616324980672	706.229084151905	1430.944388540225	628.690272859209	686.024157532127	1495.275032123447	445.899513238920	746.054454102453	938.382387962815	573.459189797911	821.545411524362	762.218004087217	540.858696190853	778.202493561718	643.446441496597	613.787805667882	863.777323500597	599.759806713312	531.107492199153	875.813676603041	483.573638164383	552.160598759082	779.751105935299	754.739954020490	331.922748528957	693.908081437952	634.916518559780	280.501037904816	778.108941268456	560.538100982099	347.400105066662	779.474955061568	489.601025658303	361.593849287168	753.343373089010	416.556634862792	354.874488839917	668.028619962892	301.163864382344	301.764743953971	710.464151538876	192.602950217434	380.208891172041	792.362221312617	416.012500458094	562.921293556460	669.957034662615	391.270978962834	628.368908881911	640.761002150460	284.701452970905	581.675400151165	437.346110619341	261.018149166978	560.130069282679	587.803117924414	163.421777266797	597.374813174430	480.507255180274	186.522310764166	631.281144363353	624.541249933980	36.828720387325	620.970549688791	575.815959102753	37.681208427495	415.715761861064	654.858886857407	35.229005878907	339.513784059928	737.000932081241	95.680422038406	371.151562701982	866.594898924378	41.158652650700	351.292587790259	626.624483422877	1102.331850176816	146.362651963896	794.499258497272	901.604502385678	142.752826808915	663.614319268282	1085.577532133996	743.745131756313	744.658895898700	840.702288909906	782.764032959338	
56	5.966428571429	722.688983369198	965.013460991487	299.110254969434	510.882886991096	1003.341155357409	465.526644326497	680.448335651137	1440.757142642967	293.348030806785	785.265175224053	1363.546073075139	449.840767123580	703.906930070123	1431.671530871859	628.211312327009	685.497117026549	1495.977425805253	445.257064687022	744.342916000003	939.591782671909	573.221291949536	823.254919709899	767.053816483992	539.807029489913	783.209251133776	647.399318401477	613.040070138264	869.685883340739	605.814659857375	530.127101225553	884.683094365953	489.691584125864	551.041811638798	777.129104225011	753.965116123212	331.327861709110	689.802042968441	635.076133986962	280.108213627782	773.048757067199	559.870366740212	347.061470054376	773.494067793736	489.120511037251	361.504093960000	747.416534981505	416.385627012616	354.660693949354	661.891973002342	301.163980562606	301.486948480605	703.931633345714	192.546049786196	380.096421469707	802.534671215506	420.434120700844	561.677222377277	680.356647546731	393.193855717117	626.553169445910	653.614927143185	285.975029355744	579.898330314824	450.708443854424	257.022773175352	557.452467430776	603.583751614523	164.027625536572	595.488105641276	495.731716627408	184.088682937505	628.957647261274	643.555457211752	38.262835149073	619.559849211243	568.912543929203	37.741312090869	415.656673030932	647.999958003703	35.240837795845	339.454154970707	730.180678683347	95.682212461322	371.058241397970	859.734102964975	41.088899553663	351.232533457323	629.959075296447	1103.103616262669	144.483244636976	800.848012840070	905.047884190166	141.686683265153	652.416601685115	1088.109082410158	743.787522081109	721.442684958295	839.529232586827	782.617211044815	
57	5.980000000000	722.187061012746	965.701166870691	298.888312324799	509.642050761018	1003.970217521027	464.449919762946	681.061736273836	1441.474592353054	292.739999840264	784.409614359761	1364.268681051391	450.166426307699	701.593825976956	1432.529563850239	627.788130897200	684.929467195155	1496.740404351924	444.689248059723	742.558278973723	940.895559518428	573.195517480237	824.487382098054	771.797907944655	539.126956316449	787.500862845090	651.376703208424	612.615242272432	874.715786242502	611.759542654975	529.482498060204	892.598794818238	495.940493529494	550.334342092381	774.371744194435	753.190095634233	331.211193338186	685.628702827899	635.300235662328	279.915993643324	767.759053613914	559.224571407285	347.025264288419	767.225927647228	488.676255928673	361.667109030897	741.270611328912	416.272844370201	354.612217205562	655.595430637992	301.203438748277	301.331684644865	697.315161595014	192.532702712985	380.060744837061	812.210344545695	424.703965451584	560.780127931814	690.537991986370	394.007565899300	625.056049867229	667.039396671837	286.043259477399	578.343662601300	464.850440754988	250.150859877686	555.070653449162	620.857791185639	163.163304783274	593.678318991218	512.391802951273	179.170536258149	626.804977027313	665.281547169839	39.154707259933	618.070565150373	562.003309031211	37.786759802455	415.605892163779	641.136973345876	35.253515153464	339.409252466444	723.355712221495	95.695596596289	370.987464587465	852.869430380631	41.030045620632	351.193190625333	633.205951296209	1103.902469841478	142.890669085421	806.833358710165	908.343953238598	141.021895882763	641.375847563049	1090.975646921929	743.677930754590	699.202622477799	839.406609410983	781.584509903088	
